<?xml version="1.0" encoding="UTF-8" standalone="no"?>
<!-- Generator: Adobe Illustrator 18.1.1, SVG Export Plug-In . SVG Version: 6.00 Build 0)  -->

<svg
   xmlns:dc="http://purl.org/dc/elements/1.1/"
   xmlns:cc="http://creativecommons.org/ns#"
   xmlns:rdf="http://www.w3.org/1999/02/22-rdf-syntax-ns#"
   xmlns:svg="http://www.w3.org/2000/svg"
   xmlns="http://www.w3.org/2000/svg"
   xmlns:sodipodi="http://sodipodi.sourceforge.net/DTD/sodipodi-0.dtd"
   xmlns:inkscape="http://www.inkscape.org/namespaces/inkscape"
   version="1.1"
   id="Capa_1"
   x="0px"
   y="0px"
   viewBox="0 0 612.001 612.001"
   style="enable-background:new 0 0 612.001 612.001;"
   xml:space="preserve"
   sodipodi:docname="scifiIcon2.svg"
   inkscape:version="0.92.2 (5c3e80d, 2017-08-06)"><metadata
     id="metadata41"><rdf:RDF><cc:Work
         rdf:about=""><dc:format>image/svg+xml</dc:format><dc:type
           rdf:resource="http://purl.org/dc/dcmitype/StillImage" /><dc:title></dc:title></cc:Work></rdf:RDF></metadata><defs
     id="defs39" /><sodipodi:namedview
     pagecolor="#ffffff"
     bordercolor="#666666"
     borderopacity="1"
     objecttolerance="10"
     gridtolerance="10"
     guidetolerance="10"
     inkscape:pageopacity="0"
     inkscape:pageshadow="2"
     inkscape:window-width="1366"
     inkscape:window-height="715"
     id="namedview37"
     showgrid="false"
     inkscape:zoom="0.3856203"
     inkscape:cx="306.00049"
     inkscape:cy="409.72947"
     inkscape:window-x="-8"
     inkscape:window-y="-8"
     inkscape:window-maximized="1"
     inkscape:current-layer="Capa_1" /><path
     style="fill:#ffffff;stroke-width:4.10602522"
     d="m 278.24035,514.2119 c -4.03563,-21.92778 0.75987,-63.44203 10.27803,-88.97638 30.14975,-80.88263 114.63283,-134.21597 193.5072,-122.15922 l 19.11748,2.92231 -1.53913,42.16914 c -1.38939,38.06691 -2.95134,45.19379 -16.05616,73.26078 -32.46913,69.54034 -92.09093,107.78431 -168.03417,107.78431 h -34.51246 z"
     id="path44"
     inkscape:connector-curvature="0" /><path
     style="fill:#ffffff;stroke-width:3.53261614"
     d="m 220.71415,479.12288 c -43.58141,-13.02231 -79.29598,-42.13689 -99.00111,-80.70586 -20.04339,-39.23101 -23.10472,-93.20392 -5.53381,-97.5637 23.1672,-5.74834 66.12872,0.38752 97.30759,13.89769 59.98024,25.99016 101.75293,95.12285 93.00253,153.91671 l -2.27599,15.2924 -31.21391,0.72951 c -22.16223,0.51793 -37.32437,-1.09634 -52.2853,-5.56675 z"
     id="path42"
     inkscape:connector-curvature="0" /><g
     id="g4"><path
       d="M64.601,236.822c0,157.434,128.185,375.178,241.4,375.178c106.581,0,241.399-217.744,241.399-375.178S439.322,0,306,0   S64.601,79.388,64.601,236.822z M368.721,353.237c29.475-29.475,70.598-40.195,108.552-32.173   c8.021,37.954-2.698,79.077-32.173,108.552c-29.475,29.475-70.598,40.195-108.552,32.173   C328.526,423.834,339.246,382.711,368.721,353.237z M134.727,321.063c37.954-8.021,79.077,2.698,108.552,32.173   c29.475,29.475,40.195,70.598,32.173,108.552c-37.954,8.021-79.077-2.698-108.552-32.173   C137.425,400.139,126.706,359.017,134.727,321.063z"
       id="path2" /></g><ellipse
     style="fill:#ffffff;stroke-width:1.1509434"
     id="path3835"
     cx="303.40723"
     cy="173.74603"
     rx="158.18669"
     ry="158.18671" /><g
     id="g3833"
     transform="matrix(5.825375,0,0,5.5826458,200.07374,51.70051)"><g
       id="g3777"><path
         id="path3775"
         d="m 38.148,19.12 v 12.363 c 0,1.006 -0.815,1.823 -1.823,1.823 h -3.951 c -0.267,0 -0.528,-0.059 -0.771,-0.172 l -3.182,-1.479 v 2.006 c 0,1.008 -0.816,1.824 -1.824,1.824 H 1.823 C 0.815,35.485 0,34.668 0,33.661 V 16.943 c 0,-1.008 0.815,-1.824 1.823,-1.824 h 24.774 c 1.008,0 1.824,0.816 1.824,1.824 v 2.006 l 3.182,-1.482 c 0.24,-0.113 0.504,-0.17 0.771,-0.17 h 3.951 c 1.008,-0.001 1.823,0.816 1.823,1.823 z M 20.864,13.527 c 2.993,0 5.429,-2.436 5.429,-5.43 0,-2.994 -2.436,-5.433 -5.429,-5.433 -2.995,0 -5.433,2.438 -5.433,5.433 0,2.995 2.438,5.43 5.433,5.43 z m -14.446,0 c 2.994,0 5.43,-2.436 5.43,-5.43 0,-2.994 -2.436,-5.433 -5.43,-5.433 -2.994,0 -5.433,2.438 -5.433,5.433 0,2.995 2.439,5.43 5.433,5.43 z"
         inkscape:connector-curvature="0" /></g><g
       id="g3779" /><g
       id="g3781" /><g
       id="g3783" /><g
       id="g3785" /><g
       id="g3787" /><g
       id="g3789" /><g
       id="g3791" /><g
       id="g3793" /><g
       id="g3795" /><g
       id="g3797" /><g
       id="g3799" /><g
       id="g3801" /><g
       id="g3803" /><g
       id="g3805" /><g
       id="g3807" /></g><g
     id="g6" /><g
     id="g8" /><g
     id="g10" /><g
     id="g12" /><g
     id="g14" /><g
     id="g16" /><g
     id="g18" /><g
     id="g20" /><g
     id="g22" /><g
     id="g24" /><g
     id="g26" /><g
     id="g28" /><g
     id="g30" /><g
     id="g32" /><g
     id="g34" /></svg>